<svg xmlns="http://www.w3.org/2000/svg" version="1.1" xmlns:xlink="http://www.w3.org/1999/xlink" xmlns:svgjs="http://svgjs.dev/svgjs" width="1500" height="1500" viewBox="0 0 1500 1500"><rect width="1500" height="1500" fill="#575c5f"></rect><g transform="matrix(0.6666666666666666,0,0,0.6666666666666666,250.16994382022466,551.4681188098319)"><svg viewBox="0 0 356 141" data-background-color="#575c5f" preserveAspectRatio="xMidYMid meet" height="594" width="1500" xmlns="http://www.w3.org/2000/svg" xmlns:xlink="http://www.w3.org/1999/xlink"><g id="tight-bounds" transform="matrix(1,0,0,1,-0.06049999999996203,0.189381938923475)"><svg viewBox="0 0 356.12052 140.62123612215308" height="140.62123612215308" width="356.12052"><g><svg viewBox="0 0 356.12052 140.62123612215308" height="140.62123612215308" width="356.12052"><g><svg viewBox="0 0 356.12052 140.62123612215308" height="140.62123612215308" width="356.12052"><g><path d="M0 140.621v-140.621h356.121v140.621z" fill="#dedad7" stroke="transparent" stroke-width="0" rx="0%" data-fill-palette-color="tertiary"></path><path d="M3.283 137.338v-134.055h349.554v134.055z" fill="#575c5f" stroke="transparent" stroke-width="0" rx="0%" data-fill-palette-color="quaternary"></path><path d="M9.85 130.771v-120.921h336.421v120.921z" fill="#dedad7" stroke="transparent" stroke-width="0" data-fill-palette-color="tertiary"></path></g><g transform="matrix(1,0,0,1,19.69974,19.69974)" id="textblocktransform"><svg viewBox="0 0 316.72104 101.22175612215308" height="101.22175612215308" width="316.72104" id="textblock"><g><svg viewBox="0 0 316.72104 77.9087521751825" height="77.9087521751825" width="316.72104"><g transform="matrix(1,0,0,1,0,0)"><svg width="316.72104" viewBox="2.6 -33.13 136.99 33.71" height="77.9087521751825" data-palette-color="#575c5f"><path d="M14.45 0.58L14.45 0.58Q8.53 0.58 5.56-2.75 2.6-6.08 2.6-12.2L2.6-12.2 2.6-19.78Q2.6-25.9 5.55-29.21 8.5-32.52 14.4-32.52L14.4-32.52Q16.3-32.52 17.86-32.18 19.43-31.83 20.65-31.28 21.88-30.73 22.73-30.13L22.73-30.13 23.08-26.28Q21.6-27.33 19.61-28.11 17.63-28.9 14.95-28.9L14.95-28.9Q10.93-28.9 8.88-26.51 6.83-24.13 6.83-19.73L6.83-19.73 6.83-12.35Q6.83-7.98 8.9-5.56 10.98-3.15 15.1-3.15L15.1-3.15Q17.75-3.15 19.79-3.93 21.83-4.7 23.33-5.83L23.33-5.83 22.98-1.88Q22.13-1.28 20.88-0.7 19.63-0.13 18.01 0.23 16.4 0.58 14.45 0.58ZM49.05-15.63L49.05 0 45 0 45-15.18Q45-17.15 44.46-18.57 43.92-20 42.71-20.79 41.5-21.58 39.4-21.58L39.4-21.58Q37.47-21.58 36.07-20.85 34.67-20.13 33.81-18.89 32.95-17.65 32.6-16.07L32.6-16.07 31.7-18.95 32.75-18.95Q33.12-20.6 34.12-21.96 35.12-23.33 36.81-24.14 38.5-24.95 40.92-24.95L40.92-24.95Q43.82-24.95 45.61-23.85 47.4-22.75 48.22-20.69 49.05-18.63 49.05-15.63L49.05-15.63ZM32.72-17.85L32.72 0 28.67 0 28.67-33.13 32.7-33.13 32.7-25.18 32.57-18.18 32.72-17.85ZM65.57 0.55L65.57 0.55Q60 0.55 57.17-2.18 54.35-4.9 54.35-9.98L54.35-9.98 54.35-14.33Q54.35-19.48 56.97-22.26 59.6-25.05 64.65-25.05L64.65-25.05Q68.05-25.05 70.32-23.79 72.59-22.53 73.75-20.2 74.9-17.88 74.9-14.65L74.9-14.65 74.9-13.75Q74.9-12.95 74.83-12.15 74.77-11.35 74.67-10.58L74.67-10.58 70.95-10.58Q71-11.78 71.01-12.85 71.02-13.93 71.02-14.83L71.02-14.83Q71.02-17.05 70.31-18.59 69.59-20.13 68.18-20.94 66.77-21.75 64.65-21.75L64.65-21.75Q61.5-21.75 59.92-19.93 58.35-18.1 58.35-14.7L58.35-14.7 58.35-12.38 58.37-11.88 58.37-9.55Q58.37-8.03 58.82-6.8 59.27-5.58 60.23-4.69 61.2-3.8 62.68-3.34 64.17-2.88 66.22-2.88L66.22-2.88Q68.59-2.88 70.65-3.5 72.7-4.13 74.5-5.2L74.5-5.2 74.12-1.7Q72.5-0.68 70.34-0.06 68.2 0.55 65.57 0.55ZM73.82-13.63L73.82-10.58 56.47-10.58 56.47-13.63 73.82-13.63ZM114.82-15.73L114.82 0 110.77 0 110.77-15.28Q110.77-17.2 110.28-18.61 109.79-20.03 108.68-20.8 107.57-21.58 105.69-21.58L105.69-21.58Q103.92-21.58 102.62-20.85 101.32-20.13 100.52-18.91 99.72-17.7 99.39-16.15L99.39-16.15 98.77-19.03 99.27-19.03Q99.67-20.6 100.62-21.95 101.57-23.3 103.19-24.13 104.82-24.95 107.22-24.95L107.22-24.95Q109.94-24.95 111.61-23.88 113.27-22.8 114.04-20.74 114.82-18.68 114.82-15.73L114.82-15.73ZM84.34-18.3L84.34 0 80.29 0 80.29-24.4 84.34-24.4 84.17-18.55 84.34-18.3ZM99.57-15.85L99.57 0 95.54 0 95.54-15.28Q95.54-17.2 95.06-18.61 94.57-20.03 93.47-20.8 92.37-21.58 90.49-21.58L90.49-21.58Q88.69-21.58 87.39-20.85 86.09-20.13 85.29-18.89 84.49-17.65 84.17-16.07L84.17-16.07 83.42-18.95 84.32-18.95Q84.69-20.6 85.62-21.96 86.54-23.33 88.13-24.14 89.72-24.95 91.99-24.95L91.99-24.95Q95.37-24.95 97.13-23.2 98.89-21.45 99.34-18.1L99.34-18.1Q99.47-17.6 99.52-17.01 99.57-16.43 99.57-15.85L99.57-15.85ZM139.59-15.8L139.59 0 135.57 0 135.74-5.93 135.59-6.55 135.59-14.33 135.62-15.75Q135.62-18.73 134.1-20.15 132.59-21.58 129.32-21.58L129.32-21.58Q126.69-21.58 124.5-20.83 122.32-20.08 120.62-19.07L120.62-19.07 120.99-22.53Q121.94-23.1 123.25-23.66 124.57-24.23 126.25-24.6 127.94-24.98 129.97-24.98L129.97-24.98Q132.59-24.98 134.43-24.34 136.27-23.7 137.4-22.5 138.54-21.3 139.07-19.6 139.59-17.9 139.59-15.8L139.59-15.8ZM127.17 0.53L127.17 0.53Q123.54 0.53 121.6-1.24 119.67-3 119.67-6.28L119.67-6.28 119.67-7Q119.67-10.38 121.75-12.04 123.84-13.7 128.39-14.35L128.39-14.35 136.12-15.45 136.34-12.5 128.89-11.43Q126.09-11.03 124.89-10.06 123.69-9.1 123.69-7.23L123.69-7.23 123.69-6.83Q123.69-4.9 124.88-3.88 126.07-2.85 128.44-2.85L128.44-2.85Q130.54-2.85 132.04-3.58 133.54-4.3 134.47-5.53 135.39-6.75 135.72-8.25L135.72-8.25 136.34-5.5 135.57-5.5Q135.22-3.9 134.25-2.53 133.29-1.15 131.57-0.31 129.84 0.53 127.17 0.53Z" opacity="1" transform="matrix(1,0,0,1,0,0)" fill="#575c5f" class="wordmark-text-0" data-fill-palette-color="quaternary" id="text-0"></path></svg></g></svg></g><g transform="matrix(1,0,0,1,0,84.4753321751825)"><svg viewBox="0 0 316.72104 16.74642394697058" height="16.74642394697058" width="316.72104"><g transform="matrix(1,0,0,1,0,0)"><svg width="316.72104" viewBox="2.13 -33.48 644.84 34.11" height="16.74642394697058" data-palette-color="#575c5f"><path d="M12.68 0.58L12.68 0.58Q10.38 0.58 8.46 0.2 6.55-0.18 5.05-0.73 3.55-1.28 2.55-1.83L2.55-1.83 2.13-5.95Q4.05-4.8 6.66-3.94 9.28-3.08 12.35-3.08L12.35-3.08Q16.05-3.08 17.82-4.39 19.6-5.7 19.6-8.33L19.6-8.33 19.6-8.72Q19.6-10.45 18.9-11.55 18.2-12.65 16.54-13.4 14.88-14.15 12.03-14.8L12.03-14.8Q8.43-15.65 6.26-16.81 4.1-17.98 3.14-19.73 2.18-21.48 2.18-24.08L2.18-24.08 2.18-24.3Q2.18-28.23 4.75-30.36 7.33-32.5 12.55-32.5L12.55-32.5Q15.98-32.5 18.39-31.8 20.8-31.1 22.33-30.25L22.33-30.25 22.7-26.45Q20.93-27.5 18.56-28.24 16.2-28.98 13.15-28.98L13.15-28.98Q10.73-28.98 9.22-28.4 7.73-27.83 7.05-26.75 6.38-25.68 6.38-24.15L6.38-24.15 6.38-24.05Q6.38-22.5 7.04-21.4 7.7-20.3 9.36-19.5 11.03-18.7 14.1-17.95L14.1-17.95Q17.63-17.13 19.75-16.05 21.88-14.98 22.84-13.25 23.8-11.53 23.8-8.75L23.8-8.75 23.8-8.22Q23.8-3.9 21.01-1.66 18.23 0.58 12.68 0.58ZM38.22 0.5L38.22 0.5Q35.4 0.5 33.67-0.35 31.95-1.2 31.17-2.93 30.4-4.65 30.4-7.23L30.4-7.23 30.4-22.63 34.4-22.63 34.4-7.7Q34.4-5.3 35.5-4.16 36.6-3.03 39.2-3.03L39.2-3.03Q40.67-3.03 42.03-3.35 43.4-3.68 44.6-4.28L44.6-4.28 44.22-0.8Q43.05-0.2 41.47 0.15 39.9 0.5 38.22 0.5ZM44.35-24.05L43.97-20.8 26.4-20.8 26.4-24.05 44.35-24.05ZM34.47-31.03L34.3-23.65 30.42-23.65 30.4-30.5 34.47-31.03ZM52.97-14.93L52.97-14.93 52.05-18.05 53.05-18.1Q53.85-21.2 55.8-22.99 57.75-24.78 60.97-24.78L60.97-24.78Q61.77-24.78 62.41-24.65 63.05-24.53 63.55-24.35L63.55-24.35 63.8-20.43Q63.17-20.63 62.41-20.75 61.65-20.88 60.72-20.88L60.72-20.88Q57.97-20.88 55.93-19.35 53.9-17.82 52.97-14.93ZM53.17-16.9L53.17 0 49.12 0 49.12-24.4 53.07-24.4 52.87-17.2 53.17-16.9ZM78.02 0.55L78.02 0.55Q72.44 0.55 69.62-2.18 66.79-4.9 66.79-9.98L66.79-9.98 66.79-14.33Q66.79-19.48 69.42-22.26 72.04-25.05 77.09-25.05L77.09-25.05Q80.49-25.05 82.77-23.79 85.04-22.53 86.19-20.2 87.34-17.88 87.34-14.65L87.34-14.65 87.34-13.75Q87.34-12.95 87.28-12.15 87.22-11.35 87.12-10.58L87.12-10.58 83.39-10.58Q83.44-11.78 83.46-12.85 83.47-13.93 83.47-14.83L83.47-14.83Q83.47-17.05 82.76-18.59 82.04-20.13 80.63-20.94 79.22-21.75 77.09-21.75L77.09-21.75Q73.94-21.75 72.37-19.93 70.79-18.1 70.79-14.7L70.79-14.7 70.79-12.38 70.82-11.88 70.82-9.55Q70.82-8.03 71.27-6.8 71.72-5.58 72.68-4.69 73.64-3.8 75.13-3.34 76.62-2.88 78.67-2.88L78.67-2.88Q81.04-2.88 83.09-3.5 85.14-4.13 86.94-5.2L86.94-5.2 86.57-1.7Q84.94-0.68 82.79-0.06 80.64 0.55 78.02 0.55ZM86.27-13.63L86.27-10.58 68.92-10.58 68.92-13.63 86.27-13.63ZM111.24-15.8L111.24 0 107.22 0 107.39-5.93 107.24-6.55 107.24-14.33 107.27-15.75Q107.27-18.73 105.75-20.15 104.24-21.58 100.97-21.58L100.97-21.58Q98.34-21.58 96.15-20.83 93.97-20.08 92.27-19.07L92.27-19.07 92.64-22.53Q93.59-23.1 94.9-23.66 96.22-24.23 97.9-24.6 99.59-24.98 101.62-24.98L101.62-24.98Q104.24-24.98 106.08-24.34 107.92-23.7 109.05-22.5 110.19-21.3 110.72-19.6 111.24-17.9 111.24-15.8L111.24-15.8ZM98.82 0.53L98.82 0.53Q95.19 0.53 93.25-1.24 91.32-3 91.32-6.28L91.32-6.28 91.32-7Q91.32-10.38 93.4-12.04 95.49-13.7 100.04-14.35L100.04-14.35 107.77-15.45 107.99-12.5 100.54-11.43Q97.74-11.03 96.54-10.06 95.34-9.1 95.34-7.23L95.34-7.23 95.34-6.83Q95.34-4.9 96.53-3.88 97.72-2.85 100.09-2.85L100.09-2.85Q102.19-2.85 103.69-3.58 105.19-4.3 106.12-5.53 107.04-6.75 107.37-8.25L107.37-8.25 107.99-5.5 107.22-5.5Q106.87-3.9 105.9-2.53 104.94-1.15 103.22-0.31 101.49 0.53 98.82 0.53ZM151.96-15.73L151.96 0 147.91 0 147.91-15.28Q147.91-17.2 147.43-18.61 146.94-20.03 145.83-20.8 144.71-21.58 142.84-21.58L142.84-21.58Q141.06-21.58 139.76-20.85 138.46-20.13 137.66-18.91 136.86-17.7 136.54-16.15L136.54-16.15 135.91-19.03 136.41-19.03Q136.81-20.6 137.76-21.95 138.71-23.3 140.34-24.13 141.96-24.95 144.36-24.95L144.36-24.95Q147.09-24.95 148.75-23.88 150.41-22.8 151.19-20.74 151.96-18.68 151.96-15.73L151.96-15.73ZM121.49-18.3L121.49 0 117.44 0 117.44-24.4 121.49-24.4 121.31-18.55 121.49-18.3ZM136.71-15.85L136.71 0 132.69 0 132.69-15.28Q132.69-17.2 132.2-18.61 131.71-20.03 130.61-20.8 129.51-21.58 127.64-21.58L127.64-21.58Q125.84-21.58 124.54-20.85 123.24-20.13 122.44-18.89 121.64-17.65 121.31-16.07L121.31-16.07 120.56-18.95 121.46-18.95Q121.84-20.6 122.76-21.96 123.69-23.33 125.28-24.14 126.86-24.95 129.14-24.95L129.14-24.95Q132.51-24.95 134.28-23.2 136.04-21.45 136.49-18.1L136.49-18.1Q136.61-17.6 136.66-17.01 136.71-16.43 136.71-15.85L136.71-15.85ZM162.39-33.13L162.39 0 158.36 0 158.36-33.13 162.39-33.13ZM173.23-24.4L173.23 0 169.18 0 169.18-24.4 173.23-24.4ZM171.21-28.4L171.21-28.4Q169.96-28.4 169.35-29.06 168.73-29.73 168.73-30.88L168.73-30.88 168.73-31Q168.73-32.18 169.35-32.83 169.96-33.48 171.21-33.48L171.21-33.48Q172.46-33.48 173.08-32.83 173.71-32.18 173.71-31L173.71-31 173.71-30.88Q173.71-29.7 173.08-29.05 172.46-28.4 171.21-28.4ZM200.31-15.63L200.31 0 196.26 0 196.26-15.18Q196.26-17.15 195.72-18.57 195.18-20 193.97-20.79 192.76-21.58 190.66-21.58L190.66-21.58Q188.73-21.58 187.32-20.85 185.91-20.13 185.03-18.89 184.16-17.65 183.81-16.07L183.81-16.07 183.08-18.95 183.96-18.95Q184.36-20.6 185.36-21.96 186.36-23.33 188.04-24.14 189.73-24.95 192.18-24.95L192.18-24.95Q195.08-24.95 196.87-23.85 198.66-22.75 199.48-20.69 200.31-18.63 200.31-15.63L200.31-15.63ZM183.98-18.32L183.98 0 179.93 0 179.93-24.4 183.98-24.4 183.81-18.55 183.98-18.32ZM216.83 0.55L216.83 0.55Q211.25 0.55 208.43-2.18 205.6-4.9 205.6-9.98L205.6-9.98 205.6-14.33Q205.6-19.48 208.23-22.26 210.85-25.05 215.9-25.05L215.9-25.05Q219.3-25.05 221.58-23.79 223.85-22.53 225-20.2 226.15-17.88 226.15-14.65L226.15-14.65 226.15-13.75Q226.15-12.95 226.09-12.15 226.03-11.35 225.93-10.58L225.93-10.58 222.2-10.58Q222.25-11.78 222.27-12.85 222.28-13.93 222.28-14.83L222.28-14.83Q222.28-17.05 221.57-18.59 220.85-20.13 219.44-20.94 218.03-21.75 215.9-21.75L215.9-21.75Q212.75-21.75 211.18-19.93 209.6-18.1 209.6-14.7L209.6-14.7 209.6-12.38 209.63-11.88 209.63-9.55Q209.63-8.03 210.08-6.8 210.53-5.58 211.49-4.69 212.45-3.8 213.94-3.34 215.43-2.88 217.48-2.88L217.48-2.88Q219.85-2.88 221.9-3.5 223.95-4.13 225.75-5.2L225.75-5.2 225.38-1.7Q223.75-0.68 221.6-0.06 219.45 0.55 216.83 0.55ZM225.08-13.63L225.08-10.58 207.73-10.58 207.73-13.63 225.08-13.63ZM233.03 0.48L233.03 0.48Q231.73 0.48 231.11-0.24 230.5-0.95 230.5-2.25L230.5-2.25 230.5-2.5Q230.5-3.78 231.11-4.48 231.73-5.18 233.03-5.18L233.03-5.18Q234.3-5.18 234.93-4.48 235.55-3.78 235.55-2.5L235.55-2.5 235.55-2.25Q235.55-0.95 234.93-0.24 234.3 0.48 233.03 0.48ZM262.87 0.58L262.87 0.58Q256.95 0.58 253.98-2.75 251.02-6.08 251.02-12.2L251.02-12.2 251.02-19.78Q251.02-25.9 253.97-29.21 256.92-32.52 262.82-32.52L262.82-32.52Q264.72-32.52 266.28-32.18 267.85-31.83 269.07-31.28 270.3-30.73 271.15-30.13L271.15-30.13 271.5-26.28Q270.02-27.33 268.03-28.11 266.05-28.9 263.37-28.9L263.37-28.9Q259.35-28.9 257.3-26.51 255.25-24.13 255.25-19.73L255.25-19.73 255.25-12.35Q255.25-7.98 257.32-5.56 259.4-3.15 263.52-3.15L263.52-3.15Q266.17-3.15 268.21-3.93 270.25-4.7 271.75-5.83L271.75-5.83 271.4-1.88Q270.55-1.28 269.3-0.7 268.05-0.13 266.43 0.23 264.82 0.58 262.87 0.58ZM286.79 0.63L286.79 0.63Q281.54 0.63 278.83-2.21 276.12-5.05 276.12-10.38L276.12-10.38 276.12-14.1Q276.12-19.4 278.84-22.23 281.57-25.05 286.79-25.05L286.79-25.05Q292.04-25.05 294.76-22.23 297.47-19.4 297.47-14.1L297.47-14.1 297.47-10.38Q297.47-5.05 294.76-2.21 292.04 0.63 286.79 0.63ZM286.79-2.68L286.79-2.68Q290.04-2.68 291.73-4.6 293.42-6.53 293.42-10.15L293.42-10.15 293.42-14.33Q293.42-17.93 291.73-19.84 290.04-21.75 286.79-21.75L286.79-21.75Q283.57-21.75 281.87-19.84 280.17-17.93 280.17-14.33L280.17-14.33 280.17-10.15Q280.17-6.53 281.87-4.6 283.57-2.68 286.79-2.68ZM307.24-33.13L307.24 0 303.22 0 303.22-33.13 307.24-33.13ZM318.11-33.13L318.11 0 314.09 0 314.09-33.13 318.11-33.13ZM343.34-15.8L343.34 0 339.31 0 339.49-5.93 339.34-6.55 339.34-14.33 339.36-15.75Q339.36-18.73 337.85-20.15 336.34-21.58 333.06-21.58L333.06-21.58Q330.44-21.58 328.25-20.83 326.06-20.08 324.36-19.07L324.36-19.07 324.74-22.53Q325.69-23.1 327-23.66 328.31-24.23 330-24.6 331.69-24.98 333.71-24.98L333.71-24.98Q336.34-24.98 338.17-24.34 340.01-23.7 341.15-22.5 342.29-21.3 342.81-19.6 343.34-17.9 343.34-15.8L343.34-15.8ZM330.91 0.53L330.91 0.53Q327.29 0.53 325.35-1.24 323.41-3 323.41-6.28L323.41-6.28 323.41-7Q323.41-10.38 325.5-12.04 327.59-13.7 332.14-14.35L332.14-14.35 339.86-15.45 340.09-12.5 332.64-11.43Q329.84-11.03 328.64-10.06 327.44-9.1 327.44-7.23L327.44-7.23 327.44-6.83Q327.44-4.9 328.62-3.88 329.81-2.85 332.19-2.85L332.19-2.85Q334.29-2.85 335.79-3.58 337.29-4.3 338.21-5.53 339.14-6.75 339.46-8.25L339.46-8.25 340.09-5.5 339.31-5.5Q338.96-3.9 338-2.53 337.04-1.15 335.31-0.31 333.59 0.53 330.91 0.53ZM361.56 0.53L361.56 0.53Q359.31 0.53 357.65-0.23 355.98-0.98 354.96-2.38 353.93-3.78 353.58-5.63L353.58-5.63 352.23-5.63 353.46-9.43Q353.58-7.23 354.5-5.76 355.41-4.3 356.93-3.58 358.46-2.85 360.38-2.85L360.38-2.85Q363.43-2.85 365.05-4.65 366.66-6.45 366.66-10L366.66-10 366.66-14.58Q366.66-18.05 365.03-19.85 363.41-21.65 360.31-21.65L360.31-21.65Q358.46-21.65 357.03-20.93 355.61-20.2 354.67-18.95 353.73-17.7 353.38-16.1L353.38-16.1 352.46-18.93 353.61-18.93Q353.98-20.6 354.95-21.96 355.91-23.33 357.58-24.14 359.26-24.95 361.73-24.95L361.73-24.95Q366.13-24.95 368.43-22.21 370.73-19.48 370.73-14.28L370.73-14.28 370.73-10.23Q370.73-4.98 368.4-2.23 366.06 0.53 361.56 0.53ZM353.41-5.9L353.58 0 349.53 0 349.53-33.13 353.56-33.13 353.56-25.18 353.43-18.18 353.46-17.4 353.46-7.2 353.41-5.9ZM386.08 0.63L386.08 0.63Q380.83 0.63 378.12-2.21 375.41-5.05 375.41-10.38L375.41-10.38 375.41-14.1Q375.41-19.4 378.13-22.23 380.86-25.05 386.08-25.05L386.08-25.05Q391.33-25.05 394.04-22.23 396.76-19.4 396.76-14.1L396.76-14.1 396.76-10.38Q396.76-5.05 394.04-2.21 391.33 0.63 386.08 0.63ZM386.08-2.68L386.08-2.68Q389.33-2.68 391.02-4.6 392.71-6.53 392.71-10.15L392.71-10.15 392.71-14.33Q392.71-17.93 391.02-19.84 389.33-21.75 386.08-21.75L386.08-21.75Q382.86-21.75 381.16-19.84 379.46-17.93 379.46-14.33L379.46-14.33 379.46-10.15Q379.46-6.53 381.16-4.6 382.86-2.68 386.08-2.68ZM406.23-14.93L406.23-14.93 405.3-18.05 406.3-18.1Q407.1-21.2 409.05-22.99 411-24.78 414.23-24.78L414.23-24.78Q415.03-24.78 415.67-24.65 416.3-24.53 416.8-24.35L416.8-24.35 417.05-20.43Q416.43-20.63 415.67-20.75 414.9-20.88 413.98-20.88L413.98-20.88Q411.23-20.88 409.19-19.35 407.15-17.82 406.23-14.93ZM406.43-16.9L406.43 0 402.38 0 402.38-24.4 406.33-24.4 406.13-17.2 406.43-16.9ZM439.53-15.8L439.53 0 435.5 0 435.68-5.93 435.53-6.55 435.53-14.33 435.55-15.75Q435.55-18.73 434.04-20.15 432.53-21.58 429.25-21.58L429.25-21.58Q426.63-21.58 424.44-20.83 422.25-20.08 420.55-19.07L420.55-19.07 420.93-22.53Q421.88-23.1 423.19-23.66 424.5-24.23 426.19-24.6 427.88-24.98 429.9-24.98L429.9-24.98Q432.53-24.98 434.36-24.34 436.2-23.7 437.34-22.5 438.48-21.3 439-19.6 439.53-17.9 439.53-15.8L439.53-15.8ZM427.1 0.53L427.1 0.53Q423.48 0.53 421.54-1.24 419.6-3 419.6-6.28L419.6-6.28 419.6-7Q419.6-10.38 421.69-12.04 423.78-13.7 428.33-14.35L428.33-14.35 436.05-15.45 436.28-12.5 428.83-11.43Q426.03-11.03 424.83-10.06 423.63-9.1 423.63-7.23L423.63-7.23 423.63-6.83Q423.63-4.9 424.81-3.88 426-2.85 428.38-2.85L428.38-2.85Q430.48-2.85 431.98-3.58 433.48-4.3 434.4-5.53 435.33-6.75 435.65-8.25L435.65-8.25 436.28-5.5 435.5-5.5Q435.15-3.9 434.19-2.53 433.23-1.15 431.5-0.31 429.78 0.53 427.1 0.53ZM454.6 0.5L454.6 0.5Q451.77 0.5 450.05-0.35 448.32-1.2 447.55-2.93 446.77-4.65 446.77-7.23L446.77-7.23 446.77-22.63 450.77-22.63 450.77-7.7Q450.77-5.3 451.87-4.16 452.97-3.03 455.57-3.03L455.57-3.03Q457.05-3.03 458.41-3.35 459.77-3.68 460.97-4.28L460.97-4.28 460.6-0.8Q459.42-0.2 457.85 0.15 456.27 0.5 454.6 0.5ZM460.72-24.05L460.35-20.8 442.77-20.8 442.77-24.05 460.72-24.05ZM450.85-31.03L450.67-23.65 446.8-23.65 446.77-30.5 450.85-31.03ZM475.75 0.55L475.75 0.55Q470.17 0.55 467.35-2.18 464.52-4.9 464.52-9.98L464.52-9.98 464.52-14.33Q464.52-19.48 467.15-22.26 469.77-25.05 474.82-25.05L474.82-25.05Q478.22-25.05 480.5-23.79 482.77-22.53 483.92-20.2 485.07-17.88 485.07-14.65L485.07-14.65 485.07-13.75Q485.07-12.95 485.01-12.15 484.95-11.35 484.85-10.58L484.85-10.58 481.12-10.58Q481.17-11.78 481.18-12.85 481.2-13.93 481.2-14.83L481.2-14.83Q481.2-17.05 480.48-18.59 479.77-20.13 478.36-20.94 476.95-21.75 474.82-21.75L474.82-21.75Q471.67-21.75 470.1-19.93 468.52-18.1 468.52-14.7L468.52-14.7 468.52-12.38 468.55-11.88 468.55-9.55Q468.55-8.03 469-6.8 469.45-5.58 470.41-4.69 471.37-3.8 472.86-3.34 474.35-2.88 476.4-2.88L476.4-2.88Q478.77-2.88 480.82-3.5 482.87-4.13 484.67-5.2L484.67-5.2 484.3-1.7Q482.67-0.68 480.52-0.06 478.37 0.55 475.75 0.55ZM484-13.63L484-10.58 466.65-10.58 466.65-13.63 484-13.63ZM491.94 0.48L491.94 0.48Q490.64 0.48 490.03-0.24 489.42-0.95 489.42-2.25L489.42-2.25 489.42-2.5Q489.42-3.78 490.03-4.48 490.64-5.18 491.94-5.18L491.94-5.18Q493.22-5.18 493.84-4.48 494.47-3.78 494.47-2.5L494.47-2.5 494.47-2.25Q494.47-0.95 493.84-0.24 493.22 0.48 491.94 0.48ZM522.69-31.28L522.69 0 518.54 0 518.54-31.28 522.69-31.28ZM532.26-31.95L532.26-28.48 508.96-28.48 508.96-31.95 532.26-31.95ZM557.56-15.63L557.56 0 553.51 0 553.51-15.18Q553.51-17.15 552.97-18.57 552.43-20 551.22-20.79 550.01-21.58 547.91-21.58L547.91-21.58Q545.99-21.58 544.59-20.85 543.18-20.13 542.32-18.89 541.46-17.65 541.11-16.07L541.11-16.07 540.21-18.95 541.26-18.95Q541.63-20.6 542.63-21.96 543.63-23.33 545.32-24.14 547.01-24.95 549.43-24.95L549.43-24.95Q552.34-24.95 554.12-23.85 555.91-22.75 556.74-20.69 557.56-18.63 557.56-15.63L557.56-15.63ZM541.24-17.85L541.24 0 537.18 0 537.18-33.13 541.21-33.13 541.21-25.18 541.09-18.18 541.24-17.85ZM567.68-14.93L567.68-14.93 566.76-18.05 567.76-18.1Q568.56-21.2 570.51-22.99 572.46-24.78 575.68-24.78L575.68-24.78Q576.48-24.78 577.12-24.65 577.76-24.53 578.26-24.35L578.26-24.35 578.51-20.43Q577.88-20.63 577.12-20.75 576.36-20.88 575.43-20.88L575.43-20.88Q572.68-20.88 570.64-19.35 568.61-17.82 567.68-14.93ZM567.88-16.9L567.88 0 563.83 0 563.83-24.4 567.78-24.4 567.58-17.2 567.88-16.9ZM586.6-24.4L586.6 0 582.55 0 582.55-24.4 586.6-24.4ZM584.58-28.4L584.58-28.4Q583.33-28.4 582.72-29.06 582.1-29.73 582.1-30.88L582.1-30.88 582.1-31Q582.1-32.18 582.72-32.83 583.33-33.48 584.58-33.48L584.58-33.48Q585.83-33.48 586.45-32.83 587.08-32.18 587.08-31L587.08-31 587.08-30.88Q587.08-29.7 586.45-29.05 585.83-28.4 584.58-28.4ZM595.3-24.4L602.05-2.78 602.65-2.78 609.4-24.4 613.6-24.4 605.68 0 599.03 0 591.1-24.4 595.3-24.4ZM628.25 0.55L628.25 0.55Q622.67 0.55 619.85-2.18 617.02-4.9 617.02-9.98L617.02-9.98 617.02-14.33Q617.02-19.48 619.65-22.26 622.27-25.05 627.32-25.05L627.32-25.05Q630.72-25.05 633-23.79 635.27-22.53 636.42-20.2 637.57-17.88 637.57-14.65L637.57-14.65 637.57-13.75Q637.57-12.95 637.51-12.15 637.45-11.35 637.35-10.58L637.35-10.58 633.62-10.58Q633.67-11.78 633.69-12.85 633.7-13.93 633.7-14.83L633.7-14.83Q633.7-17.05 632.99-18.59 632.27-20.13 630.86-20.94 629.45-21.75 627.32-21.75L627.32-21.75Q624.17-21.75 622.6-19.93 621.02-18.1 621.02-14.7L621.02-14.7 621.02-12.38 621.05-11.88 621.05-9.55Q621.05-8.03 621.5-6.8 621.95-5.58 622.91-4.69 623.87-3.8 625.36-3.34 626.85-2.88 628.9-2.88L628.9-2.88Q631.27-2.88 633.32-3.5 635.37-4.13 637.17-5.2L637.17-5.2 636.8-1.7Q635.17-0.68 633.02-0.06 630.87 0.55 628.25 0.55ZM636.5-13.63L636.5-10.58 619.15-10.58 619.15-13.63 636.5-13.63ZM644.45 0.48L644.45 0.48Q643.15 0.48 642.53-0.24 641.92-0.95 641.92-2.25L641.92-2.25 641.92-2.5Q641.92-3.78 642.53-4.48 643.15-5.18 644.45-5.18L644.45-5.18Q645.72-5.18 646.35-4.48 646.97-3.78 646.97-2.5L646.97-2.5 646.97-2.25Q646.97-0.95 646.35-0.24 645.72 0.48 644.45 0.48Z" opacity="1" transform="matrix(1,0,0,1,0,0)" fill="#575c5f" class="slogan-text-1" data-fill-palette-color="quaternary" id="text-1"></path></svg></g></svg></g></svg></g></svg></g><g></g></svg></g><defs></defs></svg><rect width="356.12052" height="140.62123612215308" fill="none" stroke="none" visibility="hidden"></rect></g></svg></g></svg>